<?xml version="1.0" encoding="utf-8"?>
<!-- Generator: Adobe Illustrator 19.2.0, SVG Export Plug-In . SVG Version: 6.00 Build 0)  -->
<svg version="1.1" id="图层_1" xmlns="http://www.w3.org/2000/svg" xmlns:xlink="http://www.w3.org/1999/xlink" x="0px" y="0px"
	 viewBox="0 0 32 32" style="enable-background:new 0 0 32 32;" xml:space="preserve">
<title></title>
<g id="Layer_2">
	<path d="M29.2,13l-2.7-0.4c-0.2-0.5-0.4-1-0.6-1.5l1.6-2.2c0.3-0.4,0.2-0.9-0.1-1.3l-2.8-2.8c-0.3-0.3-0.9-0.4-1.3-0.1L21,6.2
		c-0.5-0.2-1-0.5-1.5-0.6L19,2.8C18.9,2.4,18.5,2,18,2h-4c-0.5,0-0.9,0.4-1,0.8l-0.4,2.7c-0.5,0.2-1,0.4-1.5,0.6L8.8,4.6
		C8.4,4.3,7.9,4.3,7.5,4.7L4.7,7.5C4.3,7.9,4.3,8.4,4.6,8.8l1.6,2.3c-0.2,0.5-0.5,1-0.6,1.5L2.8,13C2.4,13.1,2,13.5,2,14v4
		c0,0.5,0.4,0.9,0.8,1l2.7,0.5c0.2,0.5,0.4,1,0.6,1.5l-1.6,2.2c-0.3,0.4-0.2,0.9,0.1,1.3l2.8,2.8c0.3,0.3,0.9,0.4,1.3,0.1l2.3-1.6
		c0.5,0.2,1,0.5,1.5,0.6l0.4,2.7c0.1,0.5,0.5,0.8,1,0.8h4c0.5,0,0.9-0.4,1-0.8l0.5-2.7c0.5-0.2,1-0.4,1.5-0.6l2.3,1.6
		c0.4,0.3,0.9,0.2,1.3-0.1l2.8-2.8c0.3-0.3,0.4-0.9,0.1-1.3l-1.6-2.3c0.2-0.5,0.5-1,0.6-1.5l2.7-0.4c0.5-0.1,0.8-0.5,0.8-1v-4
		C30,13.5,29.6,13.1,29.2,13z M28,17.1l-2.5,0.4c-0.4,0.1-0.7,0.4-0.8,0.7c-0.2,0.8-0.5,1.5-0.9,2.2c-0.2,0.3-0.2,0.8,0,1.1l1.5,2.1
		l-1.6,1.6l-2.1-1.5c-0.3-0.2-0.8-0.2-1.1,0c-0.7,0.4-1.4,0.7-2.2,0.9c-0.4,0.1-0.7,0.4-0.7,0.8L17.1,28h-2.3l-0.4-2.5
		c-0.1-0.4-0.4-0.7-0.7-0.8c-0.8-0.2-1.5-0.5-2.2-0.9c-0.3-0.2-0.8-0.2-1.1,0l-2.1,1.5l-1.6-1.6l1.5-2.1c0.2-0.3,0.2-0.8,0-1.1
		c-0.4-0.7-0.7-1.4-0.9-2.2c-0.1-0.4-0.4-0.7-0.8-0.7L4,17.1v-2.3l2.5-0.4c0.4-0.1,0.7-0.4,0.8-0.7c0.2-0.8,0.5-1.5,0.9-2.2
		c0.2-0.3,0.2-0.8,0-1.1L6.7,8.3l1.6-1.6l2.1,1.5c0.3,0.2,0.8,0.2,1.1,0c0.7-0.4,1.4-0.7,2.2-0.9c0.4-0.1,0.7-0.4,0.7-0.8L14.9,4
		h2.3l0.4,2.5c0.1,0.4,0.4,0.7,0.7,0.8c0.8,0.2,1.5,0.5,2.2,0.9c0.3,0.2,0.8,0.2,1.1,0l2.1-1.5l1.6,1.6l-1.5,2.1
		c-0.2,0.3-0.2,0.8,0,1.1c0.4,0.7,0.7,1.4,0.9,2.2c0.1,0.4,0.4,0.7,0.8,0.7l2.5,0.4V17.1z"/>
	<path d="M16,10c-3.3,0-6,2.7-6,6s2.7,6,6,6s6-2.7,6-6S19.3,10,16,10z M16,20c-2.2,0-4-1.8-4-4s1.8-4,4-4s4,1.8,4,4S18.2,20,16,20z"
		/>
</g>
</svg>
