<?xml version="1.0" encoding="iso-8859-1"?>
<!-- Generator: Adobe Illustrator 18.1.1, SVG Export Plug-In . SVG Version: 6.00 Build 0)  -->
<svg version="1.1" id="Capa_1" xmlns="http://www.w3.org/2000/svg" xmlns:xlink="http://www.w3.org/1999/xlink" x="0px" y="0px"
	 viewBox="0 0 38.886 38.886" style="enable-background:new 0 0 38.886 38.886;" xml:space="preserve">
<g>
	<g>
		<path style="fill:#030104;" d="M17.881,29.927c-2.49,0-4.296,1.896-4.296,4.506c0,2.539,1.825,4.453,4.244,4.453
			c2.521,0,4.349-1.873,4.349-4.453C22.178,31.823,20.371,29.927,17.881,29.927z M17.829,36.466c-1.076,0-1.826-0.836-1.826-2.033
			c0-1.248,0.755-2.088,1.878-2.088c1.175,0,1.878,0.781,1.878,2.088C19.759,35.688,19.02,36.466,17.829,36.466z"/>
		<path style="fill:#030104;" d="M18.667,0c-2.482,0-5.148,0.627-7.131,1.676c-1.057,0.559-1.539,1.902-1.1,3.059l0.492,1.292
			c0.433,1.139,1.857,1.659,2.979,1.075c1.096-0.573,2.52-0.915,3.799-0.915c2.508,0.04,3.78,1.146,3.78,3.289
			c0,2.019-1.238,3.87-3.381,6.395c-2.675,3.208-3.892,6.646-3.521,9.917l0.051,0.682c0.079,1.023,1.08,1.797,2.33,1.797h1.99
			c0.718,0,1.365-0.256,1.779-0.703c0.322-0.35,0.481-0.797,0.444-1.257l-0.05-0.628c-0.143-2.426,0.665-4.487,2.7-6.896
			c2.711-3.218,4.784-5.989,4.784-9.882C28.613,4.47,25.538,0,18.667,0z M21.981,17.222c-2.435,2.879-3.44,5.53-3.263,8.624h-1.707
			l-0.021-0.285c-0.298-2.635,0.727-5.449,2.962-8.133c2.502-2.943,3.95-5.188,3.95-7.952c0-3.461-2.362-5.648-6.167-5.708h-0.011
			c-1.568,0-3.296,0.395-4.658,1.086l-0.402-1.04c1.653-0.873,3.896-1.394,6.002-1.394c5.55,0,7.527,3.349,7.527,6.482
			C26.193,11.984,24.447,14.295,21.981,17.222z"/>
	</g>
</g>
<g>
</g>
<g>
</g>
<g>
</g>
<g>
</g>
<g>
</g>
<g>
</g>
<g>
</g>
<g>
</g>
<g>
</g>
<g>
</g>
<g>
</g>
<g>
</g>
<g>
</g>
<g>
</g>
<g>
</g>
</svg>
